<mxfile host="app.diagrams.net" modified="2023-11-03T10:52:18.610Z" agent="Mozilla/5.0 (Macintosh; Intel Mac OS X 10_15_7) AppleWebKit/605.1.15 (KHTML, like Gecko) Version/17.1 Safari/605.1.15" etag="D7Jy7ge77yIiyWynBJRE" version="22.0.8" type="device" pages="2">
  <diagram name="base page" id="03018318-947c-dd8e-b7a3-06fadd420f32">
    <mxGraphModel dx="1434" dy="802" grid="1" gridSize="10" guides="1" tooltips="1" connect="1" arrows="1" fold="1" page="1" pageScale="1" pageWidth="1100" pageHeight="850" background="none" math="0" shadow="0">
      <root>
        <mxCell id="0" />
        <mxCell id="1" parent="0" />
        <mxCell id="677b7b8949515195-1" value="" style="whiteSpace=wrap;html=1;rounded=0;shadow=0;labelBackgroundColor=none;strokeColor=#000000;strokeWidth=1;fillColor=none;fontFamily=Verdana;fontSize=12;fontColor=#000000;align=center;comic=1;" parent="1" vertex="1">
          <mxGeometry x="20" y="20" width="1060" height="810" as="geometry" />
        </mxCell>
        <mxCell id="677b7b8949515195-2" value="LOGO&lt;br&gt;&lt;font style=&quot;font-size: 9px;&quot;&gt;take to home&lt;/font&gt;" style="whiteSpace=wrap;html=1;rounded=0;shadow=0;labelBackgroundColor=none;strokeWidth=1;fontFamily=Verdana;fontSize=28;align=center;comic=1;" parent="1" vertex="1">
          <mxGeometry x="40" y="45" width="190" height="80" as="geometry" />
        </mxCell>
        <mxCell id="677b7b8949515195-9" value="" style="line;strokeWidth=1;html=1;rounded=0;shadow=0;labelBackgroundColor=none;fillColor=none;fontFamily=Verdana;fontSize=14;fontColor=#000000;align=center;comic=1;" parent="1" vertex="1">
          <mxGeometry x="20" y="140" width="1060" height="10" as="geometry" />
        </mxCell>
        <mxCell id="A5otdbUWvQEg4DYQGA6c-1" value="Music quiz" style="rounded=0;whiteSpace=wrap;html=1;" vertex="1" parent="1">
          <mxGeometry x="270" y="55" width="120" height="60" as="geometry" />
        </mxCell>
        <mxCell id="A5otdbUWvQEg4DYQGA6c-2" value="location quiz" style="rounded=0;whiteSpace=wrap;html=1;" vertex="1" parent="1">
          <mxGeometry x="430" y="55" width="120" height="60" as="geometry" />
        </mxCell>
        <mxCell id="A5otdbUWvQEg4DYQGA6c-3" value="remove ads" style="rounded=0;whiteSpace=wrap;html=1;" vertex="1" parent="1">
          <mxGeometry x="950" y="55" width="120" height="60" as="geometry" />
        </mxCell>
        <mxCell id="A5otdbUWvQEg4DYQGA6c-4" value="future knowledge quiz" style="rounded=0;whiteSpace=wrap;html=1;" vertex="1" parent="1">
          <mxGeometry x="600" y="55" width="120" height="60" as="geometry" />
        </mxCell>
        <mxCell id="A5otdbUWvQEg4DYQGA6c-5" value="&lt;b&gt;About the website&lt;/b&gt;" style="rounded=0;whiteSpace=wrap;html=1;" vertex="1" parent="1">
          <mxGeometry x="30" y="160" width="625" height="50" as="geometry" />
        </mxCell>
        <mxCell id="A5otdbUWvQEg4DYQGA6c-6" value="some video game or tv show quiz" style="rounded=0;whiteSpace=wrap;html=1;" vertex="1" parent="1">
          <mxGeometry x="780" y="55" width="120" height="60" as="geometry" />
        </mxCell>
        <mxCell id="A5otdbUWvQEg4DYQGA6c-7" value="Lorem ipsum dolor sit amet, consectetur adipisicing elit, sed do eiusmod tempor incididunt ut labore et dolore magna aliqua. Ut enim ad minim veniam, quis nostrud exercitation ullamco laboris nisi ut aliquip ex ea commodo consequat. Duis aute irure dolor in reprehenderit in voluptate velit esse cillum dolore eu fugiat nulla pariatur. Excepteur sint occaecat cupidatat non proident, sunt in culpa qui officia deserunt mollit anim id est laborum.&#xa;Sed ut perspiciatis unde omnis iste natus error sit voluptatem accusantium doloremque laudantium, totam rem aperiam, eaque ipsa quae ab illo inventore veritatis et quasi architecto beatae vitae dicta sunt explicabo. Nemo enim ipsam voluptatem quia voluptas sit aspernatur aut odit aut fugit, sed quia consequuntur magni dolores eos qui ratione voluptatem sequi nesciunt. Neque porro quisquam est, qui dolorem ipsum quia dolor sit amet, consectetur, adipisci velit, sed quia non numquam eius modi tempora incidunt ut labore et dolore magnam aliquam quaerat voluptatem. Ut enim ad minima veniam, quis nostrum exercitationem ullam corporis suscipit laboriosam, nisi ut aliquid ex ea commodi consequatur? Quis autem vel eum iure reprehenderit qui in ea voluptate velit esse quam nihil molestiae consequatur, vel illum qui dolorem eum fugiat quo voluptas nulla pariatur?" style="text;spacingTop=-5;whiteSpace=wrap;html=1;align=left;fontSize=12;fontFamily=Helvetica;fillColor=none;strokeColor=none;" vertex="1" parent="1">
          <mxGeometry x="50" y="250" width="250" height="470" as="geometry" />
        </mxCell>
        <mxCell id="A5otdbUWvQEg4DYQGA6c-8" value="" style="endArrow=classic;html=1;rounded=0;" edge="1" parent="1" target="A5otdbUWvQEg4DYQGA6c-3">
          <mxGeometry width="50" height="50" relative="1" as="geometry">
            <mxPoint x="1260" y="190" as="sourcePoint" />
            <mxPoint x="1140" y="170" as="targetPoint" />
          </mxGeometry>
        </mxCell>
        <mxCell id="A5otdbUWvQEg4DYQGA6c-9" value="signing up removes ads" style="text;html=1;align=center;verticalAlign=middle;resizable=0;points=[];autosize=1;strokeColor=none;fillColor=none;" vertex="1" parent="1">
          <mxGeometry x="1185" y="188" width="150" height="30" as="geometry" />
        </mxCell>
        <mxCell id="A5otdbUWvQEg4DYQGA6c-11" value="" style="shape=image;html=1;verticalLabelPosition=bottom;verticalAlign=top;imageAspect=0;image=img/clipart/Gear_128x128.png" vertex="1" parent="1">
          <mxGeometry x="830" y="170" width="220" height="250" as="geometry" />
        </mxCell>
        <mxCell id="A5otdbUWvQEg4DYQGA6c-12" value="" style="shape=image;html=1;verticalLabelPosition=bottom;verticalAlign=top;imageAspect=0;image=img/clipart/Gear_128x128.png" vertex="1" parent="1">
          <mxGeometry x="830" y="460" width="220" height="270" as="geometry" />
        </mxCell>
        <mxCell id="A5otdbUWvQEg4DYQGA6c-13" value="click here to remove ads" style="text;html=1;align=center;verticalAlign=middle;resizable=0;points=[];autosize=1;strokeColor=none;fillColor=none;" vertex="1" parent="1">
          <mxGeometry x="865" y="760" width="150" height="30" as="geometry" />
        </mxCell>
        <mxCell id="A5otdbUWvQEg4DYQGA6c-14" value="go to page" style="text;html=1;align=center;verticalAlign=middle;resizable=0;points=[];autosize=1;strokeColor=none;fillColor=none;" vertex="1" parent="1">
          <mxGeometry x="850" y="450" width="80" height="30" as="geometry" />
        </mxCell>
        <mxCell id="A5otdbUWvQEg4DYQGA6c-15" value="go to page" style="text;html=1;align=center;verticalAlign=middle;resizable=0;points=[];autosize=1;strokeColor=none;fillColor=none;" vertex="1" parent="1">
          <mxGeometry x="840" y="160" width="80" height="30" as="geometry" />
        </mxCell>
        <mxCell id="A5otdbUWvQEg4DYQGA6c-17" value="" style="shape=image;html=1;verticalLabelPosition=bottom;verticalAlign=top;imageAspect=0;image=img/clipart/Gear_128x128.png" vertex="1" parent="1">
          <mxGeometry x="505" y="250" width="150" height="150" as="geometry" />
        </mxCell>
        <mxCell id="A5otdbUWvQEg4DYQGA6c-18" value="increase your brain power!" style="text;html=1;align=center;verticalAlign=middle;resizable=0;points=[];autosize=1;strokeColor=none;fillColor=none;" vertex="1" parent="1">
          <mxGeometry x="505" y="220" width="160" height="30" as="geometry" />
        </mxCell>
        <mxCell id="A5otdbUWvQEg4DYQGA6c-19" value="video here of me explaining it" style="shape=ext;double=1;whiteSpace=wrap;html=1;aspect=fixed;" vertex="1" parent="1">
          <mxGeometry x="480" y="450" width="230" height="230" as="geometry" />
        </mxCell>
      </root>
    </mxGraphModel>
  </diagram>
  <diagram name="remove ads" id="XhwTymlCMhykVKC4aP-O">
    <mxGraphModel dx="1434" dy="802" grid="1" gridSize="10" guides="1" tooltips="1" connect="1" arrows="1" fold="1" page="1" pageScale="1" pageWidth="1100" pageHeight="850" background="none" math="0" shadow="0">
      <root>
        <mxCell id="0dSKx5TV232whufWYYKa-0" />
        <mxCell id="0dSKx5TV232whufWYYKa-1" parent="0dSKx5TV232whufWYYKa-0" />
        <mxCell id="0dSKx5TV232whufWYYKa-2" value="" style="whiteSpace=wrap;html=1;rounded=0;shadow=0;labelBackgroundColor=none;strokeColor=#000000;strokeWidth=1;fillColor=none;fontFamily=Verdana;fontSize=12;fontColor=#000000;align=center;comic=1;" vertex="1" parent="0dSKx5TV232whufWYYKa-1">
          <mxGeometry x="20" y="20" width="1060" height="810" as="geometry" />
        </mxCell>
        <mxCell id="0dSKx5TV232whufWYYKa-3" value="LOGO&lt;br&gt;&lt;font style=&quot;font-size: 9px;&quot;&gt;take to home&lt;/font&gt;" style="whiteSpace=wrap;html=1;rounded=0;shadow=0;labelBackgroundColor=none;strokeWidth=1;fontFamily=Verdana;fontSize=28;align=center;comic=1;" vertex="1" parent="0dSKx5TV232whufWYYKa-1">
          <mxGeometry x="40" y="45" width="190" height="80" as="geometry" />
        </mxCell>
        <mxCell id="0dSKx5TV232whufWYYKa-4" value="" style="line;strokeWidth=1;html=1;rounded=0;shadow=0;labelBackgroundColor=none;fillColor=none;fontFamily=Verdana;fontSize=14;fontColor=#000000;align=center;comic=1;" vertex="1" parent="0dSKx5TV232whufWYYKa-1">
          <mxGeometry x="20" y="140" width="1060" height="10" as="geometry" />
        </mxCell>
        <mxCell id="0dSKx5TV232whufWYYKa-5" value="Music quiz" style="rounded=0;whiteSpace=wrap;html=1;" vertex="1" parent="0dSKx5TV232whufWYYKa-1">
          <mxGeometry x="270" y="55" width="120" height="60" as="geometry" />
        </mxCell>
        <mxCell id="0dSKx5TV232whufWYYKa-6" value="location quiz" style="rounded=0;whiteSpace=wrap;html=1;" vertex="1" parent="0dSKx5TV232whufWYYKa-1">
          <mxGeometry x="430" y="55" width="120" height="60" as="geometry" />
        </mxCell>
        <mxCell id="0dSKx5TV232whufWYYKa-7" value="remove ads" style="rounded=0;whiteSpace=wrap;html=1;" vertex="1" parent="0dSKx5TV232whufWYYKa-1">
          <mxGeometry x="950" y="55" width="120" height="60" as="geometry" />
        </mxCell>
        <mxCell id="0dSKx5TV232whufWYYKa-8" value="future knowledge quiz" style="rounded=0;whiteSpace=wrap;html=1;" vertex="1" parent="0dSKx5TV232whufWYYKa-1">
          <mxGeometry x="600" y="55" width="120" height="60" as="geometry" />
        </mxCell>
        <mxCell id="0dSKx5TV232whufWYYKa-10" value="some video game or tv show quiz" style="rounded=0;whiteSpace=wrap;html=1;" vertex="1" parent="0dSKx5TV232whufWYYKa-1">
          <mxGeometry x="780" y="55" width="120" height="60" as="geometry" />
        </mxCell>
        <mxCell id="8zHktHGDTvaSUafalblt-11" value="" style="strokeWidth=1;shadow=0;dashed=0;align=center;html=1;shape=mxgraph.mockup.forms.rrect;rSize=0;strokeColor=#999999;fillColor=#ffffff;" vertex="1" parent="0dSKx5TV232whufWYYKa-1">
          <mxGeometry x="40" y="240" width="200" height="300" as="geometry" />
        </mxCell>
        <mxCell id="8zHktHGDTvaSUafalblt-12" value="Sign In" style="strokeWidth=1;shadow=0;dashed=0;align=center;html=1;shape=mxgraph.mockup.forms.anchor;fontSize=12;fontColor=#666666;align=left;resizeWidth=1;spacingLeft=0;" vertex="1" parent="8zHktHGDTvaSUafalblt-11">
          <mxGeometry width="100" height="20" relative="1" as="geometry">
            <mxPoint x="10" y="10" as="offset" />
          </mxGeometry>
        </mxCell>
        <mxCell id="8zHktHGDTvaSUafalblt-13" value="" style="shape=line;strokeColor=#ddeeff;strokeWidth=2;html=1;resizeWidth=1;" vertex="1" parent="8zHktHGDTvaSUafalblt-11">
          <mxGeometry width="180" height="10" relative="1" as="geometry">
            <mxPoint x="10" y="30" as="offset" />
          </mxGeometry>
        </mxCell>
        <mxCell id="8zHktHGDTvaSUafalblt-14" value="User Name:" style="strokeWidth=1;shadow=0;dashed=0;align=center;html=1;shape=mxgraph.mockup.forms.anchor;fontSize=12;fontColor=#666666;align=left;resizeWidth=1;spacingLeft=0;" vertex="1" parent="8zHktHGDTvaSUafalblt-11">
          <mxGeometry width="100" height="20" relative="1" as="geometry">
            <mxPoint x="10" y="40" as="offset" />
          </mxGeometry>
        </mxCell>
        <mxCell id="8zHktHGDTvaSUafalblt-15" value="johndoe" style="strokeWidth=1;shadow=0;dashed=0;align=center;html=1;shape=mxgraph.mockup.forms.rrect;rSize=0;strokeColor=#999999;fontColor=#666666;align=left;spacingLeft=5;resizeWidth=1;" vertex="1" parent="8zHktHGDTvaSUafalblt-11">
          <mxGeometry width="150" height="25" relative="1" as="geometry">
            <mxPoint x="10" y="60" as="offset" />
          </mxGeometry>
        </mxCell>
        <mxCell id="8zHktHGDTvaSUafalblt-16" value="Password:" style="strokeWidth=1;shadow=0;dashed=0;align=center;html=1;shape=mxgraph.mockup.forms.anchor;fontSize=12;fontColor=#666666;align=left;resizeWidth=1;spacingLeft=0;" vertex="1" parent="8zHktHGDTvaSUafalblt-11">
          <mxGeometry width="100" height="20" relative="1" as="geometry">
            <mxPoint x="10" y="95" as="offset" />
          </mxGeometry>
        </mxCell>
        <mxCell id="8zHktHGDTvaSUafalblt-17" value="********" style="strokeWidth=1;shadow=0;dashed=0;align=center;html=1;shape=mxgraph.mockup.forms.rrect;rSize=0;strokeColor=#999999;fontColor=#666666;align=left;spacingLeft=5;resizeWidth=1;" vertex="1" parent="8zHktHGDTvaSUafalblt-11">
          <mxGeometry width="150" height="25" relative="1" as="geometry">
            <mxPoint x="10" y="115" as="offset" />
          </mxGeometry>
        </mxCell>
        <mxCell id="8zHktHGDTvaSUafalblt-18" value="SIGN IN" style="strokeWidth=1;shadow=0;dashed=0;align=center;html=1;shape=mxgraph.mockup.forms.rrect;rSize=5;strokeColor=none;fontColor=#ffffff;fillColor=#66bbff;fontSize=16;fontStyle=1;" vertex="1" parent="8zHktHGDTvaSUafalblt-11">
          <mxGeometry y="1" width="80" height="30" relative="1" as="geometry">
            <mxPoint x="20" y="-150" as="offset" />
          </mxGeometry>
        </mxCell>
        <mxCell id="8zHktHGDTvaSUafalblt-19" value="Forgot Password?" style="strokeWidth=1;shadow=0;dashed=0;align=center;html=1;shape=mxgraph.mockup.forms.anchor;fontSize=12;fontColor=#9999ff;align=left;spacingLeft=0;fontStyle=4;resizeWidth=1;" vertex="1" parent="8zHktHGDTvaSUafalblt-11">
          <mxGeometry y="1" width="150" height="20" relative="1" as="geometry">
            <mxPoint x="10" y="-110" as="offset" />
          </mxGeometry>
        </mxCell>
        <mxCell id="8zHktHGDTvaSUafalblt-20" value="" style="shape=line;strokeColor=#ddeeff;strokeWidth=2;html=1;resizeWidth=1;" vertex="1" parent="8zHktHGDTvaSUafalblt-11">
          <mxGeometry y="1" width="180" height="10" relative="1" as="geometry">
            <mxPoint x="10" y="-90" as="offset" />
          </mxGeometry>
        </mxCell>
        <mxCell id="8zHktHGDTvaSUafalblt-21" value="New User" style="strokeWidth=1;shadow=0;dashed=0;align=center;html=1;shape=mxgraph.mockup.forms.anchor;fontSize=12;fontColor=#666666;align=left;spacingLeft=0;resizeWidth=1;" vertex="1" parent="8zHktHGDTvaSUafalblt-11">
          <mxGeometry y="1" width="150" height="20" relative="1" as="geometry">
            <mxPoint x="10" y="-70" as="offset" />
          </mxGeometry>
        </mxCell>
        <mxCell id="8zHktHGDTvaSUafalblt-22" value="SIGN UP" style="strokeWidth=1;shadow=0;dashed=0;align=center;html=1;shape=mxgraph.mockup.forms.rrect;rSize=5;strokeColor=none;fontColor=#ffffff;fillColor=#66bbff;fontSize=16;fontStyle=1;" vertex="1" parent="8zHktHGDTvaSUafalblt-11">
          <mxGeometry y="1" width="80" height="30" relative="1" as="geometry">
            <mxPoint x="20" y="-50" as="offset" />
          </mxGeometry>
        </mxCell>
        <mxCell id="8zHktHGDTvaSUafalblt-23" value="I am not a robot" style="rounded=0;whiteSpace=wrap;html=1;" vertex="1" parent="0dSKx5TV232whufWYYKa-1">
          <mxGeometry x="670" y="420" width="120" height="60" as="geometry" />
        </mxCell>
      </root>
    </mxGraphModel>
  </diagram>
</mxfile>
